<mxfile host="app.diagrams.net" modified="2023-06-17T09:34:37.717Z" agent="Mozilla/5.0 (X11; Linux x86_64; rv:109.0) Gecko/20100101 Firefox/114.0" etag="aiSpMlC0Hl6MJ7dlWGfR" version="21.4.0" type="device">
  <diagram name="Page-1" id="eOl2TCsbntun6FktnlMN">
    <mxGraphModel dx="2868" dy="1952" grid="1" gridSize="10" guides="1" tooltips="1" connect="1" arrows="1" fold="1" page="0" pageScale="1" pageWidth="850" pageHeight="1100" math="0" shadow="0">
      <root>
        <mxCell id="0" />
        <mxCell id="1" parent="0" />
        <mxCell id="kVGpFs-e-EHgGDJTWpAH-28" value="" style="shape=folder;fontStyle=1;spacingTop=10;tabWidth=76;tabHeight=25;tabPosition=left;html=1;whiteSpace=wrap;fillColor=#f5f5f5;fontColor=#333333;strokeColor=#666666;" parent="1" vertex="1">
          <mxGeometry x="20" y="-140" width="2156" height="740" as="geometry" />
        </mxCell>
        <mxCell id="kVGpFs-e-EHgGDJTWpAH-25" value="package" style="shape=folder;fontStyle=1;spacingTop=10;tabWidth=60;tabHeight=20;tabPosition=left;html=1;whiteSpace=wrap;fillColor=#f5f5f5;fontColor=#333333;strokeColor=#666666;" parent="1" vertex="1">
          <mxGeometry x="100" y="740" width="2300" height="300" as="geometry" />
        </mxCell>
        <mxCell id="kVGpFs-e-EHgGDJTWpAH-24" value="package" style="shape=folder;fontStyle=1;spacingTop=10;tabWidth=81;tabHeight=20;tabPosition=left;html=1;whiteSpace=wrap;fillColor=#f5f5f5;fontColor=#333333;strokeColor=#666666;" parent="1" vertex="1">
          <mxGeometry x="1120" y="1190" width="480" height="290" as="geometry" />
        </mxCell>
        <mxCell id="kVGpFs-e-EHgGDJTWpAH-13" style="edgeStyle=orthogonalEdgeStyle;rounded=0;orthogonalLoop=1;jettySize=auto;html=1;exitX=0.75;exitY=0;exitDx=0;exitDy=0;endArrow=none;endFill=0;dashed=1;" parent="1" source="iDF5Uk8PFmxMC6S4ZIeN-2" edge="1">
          <mxGeometry relative="1" as="geometry">
            <mxPoint x="860" y="790" as="targetPoint" />
            <Array as="points">
              <mxPoint x="340" y="790" />
            </Array>
          </mxGeometry>
        </mxCell>
        <mxCell id="iDF5Uk8PFmxMC6S4ZIeN-2" value="&lt;p style=&quot;margin:0px;margin-top:4px;text-align:center;&quot;&gt;&lt;b&gt;QuartierDao&lt;/b&gt;&lt;/p&gt;&lt;hr size=&quot;1&quot;&gt;&lt;hr size=&quot;1&quot;&gt;&lt;p style=&quot;margin:0px;margin-left:4px;&quot;&gt;+ QuartierDao(db : Database)&lt;/p&gt;&lt;p style=&quot;margin:0px;margin-left:4px;&quot;&gt;&lt;br&gt;&lt;/p&gt;&lt;p style=&quot;margin:0px;margin-left:4px;&quot;&gt;+ get(leQuartier : int) : Quartier&lt;br&gt;&lt;/p&gt;&lt;p style=&quot;margin:0px;margin-left:4px;&quot;&gt;+ getAll() : ArrayList&amp;lt;Quartier&amp;gt;&lt;/p&gt;&lt;p style=&quot;margin:0px;margin-left:4px;&quot;&gt;&lt;br&gt;&lt;/p&gt;&lt;p style=&quot;margin:0px;margin-left:4px;&quot;&gt;+ readAll() : void&lt;/p&gt;&lt;p style=&quot;margin:0px;margin-left:4px;&quot;&gt;+ add(quartier : Quartier) : void&lt;/p&gt;&lt;p style=&quot;margin:0px;margin-left:4px;&quot;&gt;+ remove(quartier : Quartier) : void&lt;/p&gt;&lt;p style=&quot;margin:0px;margin-left:4px;&quot;&gt;+ update(quartier : Quartier) : void&lt;br&gt;&lt;/p&gt;" style="verticalAlign=top;align=left;overflow=fill;fontSize=12;fontFamily=Helvetica;html=1;whiteSpace=wrap;fillColor=#fff2cc;strokeColor=#d6b656;" parent="1" vertex="1">
          <mxGeometry x="137.5" y="829" width="240" height="180" as="geometry" />
        </mxCell>
        <mxCell id="9qE0nhktHIJIXh96-6WT-73" style="edgeStyle=orthogonalEdgeStyle;rounded=0;orthogonalLoop=1;jettySize=auto;html=1;entryX=0.002;entryY=0.545;entryDx=0;entryDy=0;entryPerimeter=0;" parent="1" source="p_eBftwZYgydQJ64UmXx-5" target="MrOClFFpd0POXdo-1IgY-1" edge="1">
          <mxGeometry relative="1" as="geometry">
            <Array as="points">
              <mxPoint x="490" y="288" />
              <mxPoint x="490" y="288" />
            </Array>
          </mxGeometry>
        </mxCell>
        <mxCell id="9qE0nhktHIJIXh96-6WT-86" value="- lesCompteurs" style="edgeLabel;html=1;align=center;verticalAlign=middle;resizable=0;points=[];" parent="9qE0nhktHIJIXh96-6WT-73" vertex="1" connectable="0">
          <mxGeometry x="-0.2114" y="1" relative="1" as="geometry">
            <mxPoint x="11" y="-10" as="offset" />
          </mxGeometry>
        </mxCell>
        <mxCell id="R8S3w-2baMEadNncPOtm-10" style="edgeStyle=orthogonalEdgeStyle;rounded=0;orthogonalLoop=1;jettySize=auto;html=1;exitX=0.25;exitY=1;exitDx=0;exitDy=0;entryX=0.75;entryY=1;entryDx=0;entryDy=0;dashed=1;" parent="1" source="p_eBftwZYgydQJ64UmXx-5" target="MrOClFFpd0POXdo-1IgY-15" edge="1">
          <mxGeometry relative="1" as="geometry">
            <Array as="points">
              <mxPoint x="188" y="560" />
              <mxPoint x="2030" y="560" />
            </Array>
          </mxGeometry>
        </mxCell>
        <mxCell id="R8S3w-2baMEadNncPOtm-12" value="&amp;lt;&amp;lt;local&amp;gt;&amp;gt;" style="edgeLabel;html=1;align=center;verticalAlign=middle;resizable=0;points=[];" parent="R8S3w-2baMEadNncPOtm-10" vertex="1" connectable="0">
          <mxGeometry x="-0.9621" relative="1" as="geometry">
            <mxPoint x="3" y="-21" as="offset" />
          </mxGeometry>
        </mxCell>
        <mxCell id="p_eBftwZYgydQJ64UmXx-5" value="&lt;p style=&quot;margin:0px;margin-top:4px;text-align:center;&quot;&gt;&lt;b&gt;Quartier&lt;/b&gt;&lt;/p&gt;&lt;hr size=&quot;1&quot;&gt;&lt;p style=&quot;margin:0px;margin-left:4px;&quot;&gt;- idQuartier : int&lt;/p&gt;&lt;p style=&quot;margin:0px;margin-left:4px;&quot;&gt;- nomQuartier : String&lt;/p&gt;&lt;p style=&quot;margin:0px;margin-left:4px;&quot;&gt;- longueurPisteVelo : float&lt;br&gt;&lt;/p&gt;&lt;hr size=&quot;1&quot;&gt;&lt;p style=&quot;margin:0px;margin-left:4px;&quot;&gt;+ Quartier(idQuartier : int, nomQuartier : String, longueurPisteVelo : float)&lt;/p&gt;&lt;p style=&quot;margin:0px;margin-left:4px;&quot;&gt;&lt;br&gt;&lt;/p&gt;&lt;p style=&quot;margin:0px;margin-left:4px;&quot;&gt;+ getIdQuartier() : int&lt;/p&gt;&lt;p style=&quot;margin:0px;margin-left:4px;&quot;&gt;+ setIdQuartier(idQuartier : int) : void&lt;/p&gt;&lt;p style=&quot;margin:0px;margin-left:4px;&quot;&gt;+ getNomQuartier() : String&lt;/p&gt;&lt;p style=&quot;margin:0px;margin-left:4px;&quot;&gt;+ setNomQuartier(nomQuartier : String) : void&lt;/p&gt;&lt;p style=&quot;margin:0px;margin-left:4px;&quot;&gt;+ getLongueurPisteVelo() : float&lt;/p&gt;&lt;p style=&quot;margin:0px;margin-left:4px;&quot;&gt;+ setLongueurPisteVelo(longueurPisteVelo : float) : void&lt;/p&gt;&lt;p style=&quot;margin:0px;margin-left:4px;&quot;&gt;&lt;br&gt;&lt;/p&gt;&lt;div&gt;&amp;nbsp;+ addCompteur(leCompteur : Compteur) : void&lt;/div&gt;&lt;div&gt;&amp;nbsp;+ removeCompteur(leCompteur : Compteur) : void&lt;/div&gt;&lt;div&gt;&lt;br&gt;&lt;/div&gt;&lt;p style=&quot;margin:0px;margin-left:4px;&quot;&gt;&lt;/p&gt;&lt;p style=&quot;margin:0px;margin-left:4px;&quot;&gt;&lt;/p&gt;&lt;p style=&quot;margin:0px;margin-left:4px;&quot;&gt;+ toString() : String&lt;/p&gt;&lt;p style=&quot;margin:0px;margin-left:4px;&quot;&gt;+ totalPassages(dateDebut : DateInfo, dateFin : DateInfo) : int&lt;/p&gt;&lt;p style=&quot;margin:0px;margin-left:4px;&quot;&gt;+ averagePassages(dateDebut : DateInfo, dateFin : DateInfo) : float&lt;/p&gt;&lt;p style=&quot;margin:0px;margin-left:4px;&quot;&gt;+ totalPassagesPerHour(dateDebut : DateInfo, dateFin : DateInfo) : int[]&lt;/p&gt;&lt;p style=&quot;margin:0px;margin-left:4px;&quot;&gt;+ averagePassagesPerHour(dateDebut : DateInfo, dateFin : DateInfo) : float[]&lt;/p&gt;&lt;p style=&quot;margin:0px;margin-left:4px;&quot;&gt;+ totalPassagesPerDay(dateDebut : DateInfo, dateFin : DateInfo) : int[]&lt;/p&gt;&lt;p style=&quot;margin:0px;margin-left:4px;&quot;&gt;+ averagePassagesPerDay(dateDebut : DateInfo, dateFin : DateInfo) : float[]&lt;br&gt;&lt;/p&gt;" style="verticalAlign=top;align=left;overflow=fill;fontSize=12;fontFamily=Helvetica;html=1;whiteSpace=wrap;fillColor=#d5e8d4;strokeColor=#82b366;" parent="1" vertex="1">
          <mxGeometry x="50" y="150" width="415" height="371.5" as="geometry" />
        </mxCell>
        <mxCell id="9qE0nhktHIJIXh96-6WT-74" style="edgeStyle=orthogonalEdgeStyle;rounded=0;orthogonalLoop=1;jettySize=auto;html=1;entryX=-0.004;entryY=0.393;entryDx=0;entryDy=0;entryPerimeter=0;" parent="1" source="MrOClFFpd0POXdo-1IgY-1" target="MrOClFFpd0POXdo-1IgY-4" edge="1">
          <mxGeometry relative="1" as="geometry">
            <mxPoint x="1140" y="306" as="targetPoint" />
            <Array as="points">
              <mxPoint x="1090" y="314" />
              <mxPoint x="1090" y="314" />
            </Array>
          </mxGeometry>
        </mxCell>
        <mxCell id="9qE0nhktHIJIXh96-6WT-85" value="- lesComptages" style="edgeLabel;html=1;align=center;verticalAlign=middle;resizable=0;points=[];" parent="9qE0nhktHIJIXh96-6WT-74" vertex="1" connectable="0">
          <mxGeometry x="-0.2783" y="-1" relative="1" as="geometry">
            <mxPoint x="16" y="-10" as="offset" />
          </mxGeometry>
        </mxCell>
        <mxCell id="R8S3w-2baMEadNncPOtm-1" style="edgeStyle=orthogonalEdgeStyle;rounded=0;orthogonalLoop=1;jettySize=auto;html=1;exitX=0;exitY=0.75;exitDx=0;exitDy=0;entryX=1.002;entryY=0.701;entryDx=0;entryDy=0;entryPerimeter=0;" parent="1" source="MrOClFFpd0POXdo-1IgY-1" target="p_eBftwZYgydQJ64UmXx-5" edge="1">
          <mxGeometry relative="1" as="geometry">
            <Array as="points">
              <mxPoint x="466" y="407" />
            </Array>
          </mxGeometry>
        </mxCell>
        <mxCell id="R8S3w-2baMEadNncPOtm-2" value="- leQuartier" style="edgeLabel;html=1;align=center;verticalAlign=middle;resizable=0;points=[];" parent="R8S3w-2baMEadNncPOtm-1" vertex="1" connectable="0">
          <mxGeometry x="0.4034" relative="1" as="geometry">
            <mxPoint x="23" y="-9" as="offset" />
          </mxGeometry>
        </mxCell>
        <mxCell id="R8S3w-2baMEadNncPOtm-11" style="edgeStyle=orthogonalEdgeStyle;rounded=0;orthogonalLoop=1;jettySize=auto;html=1;exitX=0.25;exitY=1;exitDx=0;exitDy=0;endArrow=none;endFill=0;dashed=1;" parent="1" source="MrOClFFpd0POXdo-1IgY-1" edge="1">
          <mxGeometry relative="1" as="geometry">
            <mxPoint x="690" y="560" as="targetPoint" />
            <Array as="points">
              <mxPoint x="690" y="540" />
              <mxPoint x="690" y="540" />
            </Array>
          </mxGeometry>
        </mxCell>
        <mxCell id="MrOClFFpd0POXdo-1IgY-1" value="&lt;p style=&quot;margin:0px;margin-top:4px;text-align:center;&quot;&gt;&lt;b&gt;Compteur&lt;/b&gt;&lt;/p&gt;&lt;hr size=&quot;1&quot;&gt;&lt;p style=&quot;margin:0px;margin-left:4px;&quot;&gt;- idCompteur : int&lt;/p&gt;&lt;p style=&quot;margin:0px;margin-left:4px;&quot;&gt;- nomCompteur : String&lt;/p&gt;&lt;p style=&quot;margin:0px;margin-left:4px;&quot;&gt;- sens : String&lt;/p&gt;&lt;p style=&quot;margin:0px;margin-left:4px;&quot;&gt;- coordX : float&lt;/p&gt;&lt;p style=&quot;margin:0px;margin-left:4px;&quot;&gt;- coordY : float&lt;/p&gt;&lt;p style=&quot;margin:0px;margin-left:4px;&quot;&gt;- leQuartier : int&lt;br&gt;&lt;/p&gt;&lt;hr size=&quot;1&quot;&gt;&lt;p style=&quot;margin:0px;margin-left:4px;&quot;&gt;+ Compteur(idCompteur : int, nomCompteur : String, sens : String,&amp;nbsp; coordX : float, coordY : float, leQuartier : Quartier)&lt;/p&gt;&lt;p style=&quot;margin:0px;margin-left:4px;&quot;&gt;&lt;br&gt;&lt;/p&gt;&lt;p style=&quot;margin:0px;margin-left:4px;&quot;&gt;+ getIdCompteur() : int&lt;/p&gt;&lt;p style=&quot;margin:0px;margin-left:4px;&quot;&gt;+ setIdCompteur(idCompteur : int) : void&lt;/p&gt;&lt;p style=&quot;margin:0px;margin-left:4px;&quot;&gt;+ getNomCompteur() : String&lt;/p&gt;&lt;p style=&quot;margin:0px;margin-left:4px;&quot;&gt;+ setNomCompteur(nomCompteur : String) : void&lt;/p&gt;&lt;p style=&quot;margin:0px;margin-left:4px;&quot;&gt;+ getSens() : String&lt;/p&gt;&lt;p style=&quot;margin:0px;margin-left:4px;&quot;&gt;+ setSens(sens : String) : void&lt;/p&gt;&lt;p style=&quot;margin:0px;margin-left:4px;&quot;&gt;+ getCoordX() : float&lt;/p&gt;&lt;p style=&quot;margin:0px;margin-left:4px;&quot;&gt;+ setCoordX(coordX : float) : void&lt;/p&gt;&lt;p style=&quot;margin:0px;margin-left:4px;&quot;&gt;+ getCoordY() : float&lt;/p&gt;&lt;div&gt;&amp;nbsp;+ setCoordY(coordY : float) : void&lt;/div&gt;&lt;div&gt;&amp;nbsp;+ getLeQuartier() : Quartier&lt;/div&gt;&lt;div&gt;&amp;nbsp;+ setLeQuartier(leQuartier : Quartier) : void&lt;/div&gt;&lt;div&gt;&lt;br&gt;&lt;/div&gt;&lt;div&gt;&amp;nbsp;+ addComptage(leComptage : Comptage) : void&lt;/div&gt;&lt;div&gt;&amp;nbsp;+ removeComptage(leComptage : Comptage) : void&lt;/div&gt;&lt;div&gt;&lt;br&gt;&lt;p style=&quot;margin:0px;margin-left:4px;&quot;&gt;&lt;/p&gt;&lt;p style=&quot;margin:0px;margin-left:4px;&quot;&gt;+ toString() : String&lt;/p&gt;&lt;p style=&quot;margin:0px;margin-left:4px;&quot;&gt;+ totalPassages(dateDebut : DateInfo, dateFin : DateInfo) : int&lt;/p&gt;&lt;p style=&quot;margin:0px;margin-left:4px;&quot;&gt;+ averagePassages(dateDebut : DateInfo, dateFin : DateInfo) : float&lt;/p&gt;&lt;p style=&quot;margin:0px;margin-left:4px;&quot;&gt;+ totalPassagesPerHour(dateDebut : DateInfo, dateFin : DateInfo) : int[]&lt;/p&gt;&lt;p style=&quot;margin:0px;margin-left:4px;&quot;&gt;+ averagePassagesPerHour(dateDebut : DateInfo, dateFin : DateInfo) : float[]&lt;/p&gt;&lt;p style=&quot;margin:0px;margin-left:4px;&quot;&gt;+ totalPassagesPerDay(dateDebut : DateInfo, dateFin : DateInfo) : int[]&lt;/p&gt;&amp;nbsp;+ averagePassagesPerDay(dateDebut : DateInfo, dateFin : DateInfo) : float[]&lt;p style=&quot;margin:0px;margin-left:4px;&quot;&gt;&lt;/p&gt;&lt;/div&gt;&lt;p style=&quot;margin:0px;margin-left:4px;&quot;&gt;&lt;/p&gt;" style="verticalAlign=top;align=left;overflow=fill;fontSize=12;fontFamily=Helvetica;html=1;whiteSpace=wrap;fillColor=#d5e8d4;strokeColor=#82b366;" parent="1" vertex="1">
          <mxGeometry x="580" y="10" width="440" height="510" as="geometry" />
        </mxCell>
        <mxCell id="MrOClFFpd0POXdo-1IgY-7" style="edgeStyle=orthogonalEdgeStyle;rounded=0;orthogonalLoop=1;jettySize=auto;html=1;exitX=0.5;exitY=0;exitDx=0;exitDy=0;entryX=0.5;entryY=1;entryDx=0;entryDy=0;" parent="1" source="MrOClFFpd0POXdo-1IgY-4" target="MrOClFFpd0POXdo-1IgY-5" edge="1">
          <mxGeometry relative="1" as="geometry" />
        </mxCell>
        <mxCell id="MrOClFFpd0POXdo-1IgY-8" value="- anomalie" style="edgeLabel;html=1;align=center;verticalAlign=middle;resizable=0;points=[];" parent="MrOClFFpd0POXdo-1IgY-7" vertex="1" connectable="0">
          <mxGeometry x="0.225" relative="1" as="geometry">
            <mxPoint y="6" as="offset" />
          </mxGeometry>
        </mxCell>
        <mxCell id="R8S3w-2baMEadNncPOtm-4" style="edgeStyle=orthogonalEdgeStyle;rounded=0;orthogonalLoop=1;jettySize=auto;html=1;exitX=0;exitY=0.75;exitDx=0;exitDy=0;entryX=1.001;entryY=0.834;entryDx=0;entryDy=0;entryPerimeter=0;" parent="1" source="MrOClFFpd0POXdo-1IgY-4" target="MrOClFFpd0POXdo-1IgY-1" edge="1">
          <mxGeometry relative="1" as="geometry">
            <mxPoint x="1021" y="440" as="targetPoint" />
            <Array as="points">
              <mxPoint x="1020" y="435" />
            </Array>
          </mxGeometry>
        </mxCell>
        <mxCell id="R8S3w-2baMEadNncPOtm-5" value="- leCompteur" style="edgeLabel;html=1;align=center;verticalAlign=middle;resizable=0;points=[];" parent="R8S3w-2baMEadNncPOtm-4" vertex="1" connectable="0">
          <mxGeometry x="0.139" relative="1" as="geometry">
            <mxPoint x="8" y="-10" as="offset" />
          </mxGeometry>
        </mxCell>
        <mxCell id="R8S3w-2baMEadNncPOtm-7" style="edgeStyle=orthogonalEdgeStyle;rounded=0;orthogonalLoop=1;jettySize=auto;html=1;exitX=1;exitY=0.75;exitDx=0;exitDy=0;entryX=0;entryY=0.74;entryDx=0;entryDy=0;entryPerimeter=0;" parent="1" source="MrOClFFpd0POXdo-1IgY-4" target="MrOClFFpd0POXdo-1IgY-15" edge="1">
          <mxGeometry relative="1" as="geometry">
            <Array as="points">
              <mxPoint x="1570" y="430" />
              <mxPoint x="1700" y="430" />
            </Array>
          </mxGeometry>
        </mxCell>
        <mxCell id="R8S3w-2baMEadNncPOtm-8" value="- laDate" style="edgeLabel;html=1;align=center;verticalAlign=middle;resizable=0;points=[];" parent="R8S3w-2baMEadNncPOtm-7" vertex="1" connectable="0">
          <mxGeometry x="-0.1173" relative="1" as="geometry">
            <mxPoint x="12" y="-12" as="offset" />
          </mxGeometry>
        </mxCell>
        <mxCell id="MrOClFFpd0POXdo-1IgY-4" value="&lt;p style=&quot;margin:0px;margin-top:4px;text-align:center;&quot;&gt;&lt;b&gt;Comptage&lt;/b&gt;&lt;/p&gt;&lt;hr size=&quot;1&quot;&gt;&lt;div&gt;&amp;nbsp;- passages : int[]&lt;/div&gt;&lt;div&gt;&amp;nbsp;- leCompteur : int&lt;/div&gt;&lt;div&gt;&amp;nbsp;- laDate : Date&lt;br&gt;&lt;/div&gt;&lt;hr size=&quot;1&quot;&gt;&lt;p style=&quot;margin:0px;margin-left:4px;&quot;&gt;+ Comptage(passages : int[], anomalie : PresenceAnomalie, leCompteur : Compteur, laDate : DateInfo)&lt;/p&gt;&lt;p style=&quot;margin:0px;margin-left:4px;&quot;&gt;&lt;br&gt;&lt;/p&gt;&lt;p style=&quot;margin:0px;margin-left:4px;&quot;&gt;+ getPassage(heure : int) : int&lt;/p&gt;&lt;p style=&quot;margin:0px;margin-left:4px;&quot;&gt;+ setPassage(heure : int, passages : int) : void&lt;/p&gt;&lt;p style=&quot;margin:0px;margin-left:4px;&quot;&gt;+ getPassages() : int[]&lt;/p&gt;&lt;p style=&quot;margin:0px;margin-left:4px;&quot;&gt;+ setPassages(passages : int[]) : void&lt;/p&gt;&lt;p style=&quot;margin:0px;margin-left:4px;&quot;&gt;+ getAnomalie() : PresenceAnomalie&lt;/p&gt;&lt;p style=&quot;margin:0px;margin-left:4px;&quot;&gt;+ setAnomalie(anomalie : PresenceAnomalie) : void&lt;/p&gt;&lt;p style=&quot;margin:0px;margin-left:4px;&quot;&gt;+ getLeCompteur() : Compteur&lt;/p&gt;&lt;p style=&quot;margin:0px;margin-left:4px;&quot;&gt;+ setLeCompteur(leCompteur : Compteur) : void&lt;/p&gt;&lt;p style=&quot;margin:0px;margin-left:4px;&quot;&gt;+ getLaDate() : DateInfo&lt;/p&gt;&lt;p style=&quot;margin:0px;margin-left:4px;&quot;&gt;+ setLaDate(laDate : DateInfo) : void&lt;/p&gt;&lt;p style=&quot;margin:0px;margin-left:4px;&quot;&gt;&lt;br&gt;&lt;/p&gt;&lt;p style=&quot;margin:0px;margin-left:4px;&quot;&gt;+ toString() : String&lt;/p&gt;&lt;p style=&quot;margin:0px;margin-left:4px;&quot;&gt;+ totalPassages() : int&lt;/p&gt;&amp;nbsp;+ averagePassages() : float&lt;br&gt;&lt;p style=&quot;margin:0px;margin-left:4px;&quot;&gt;&lt;/p&gt;&lt;p style=&quot;margin:0px;margin-left:4px;&quot;&gt;&lt;/p&gt;" style="verticalAlign=top;align=left;overflow=fill;fontSize=12;fontFamily=Helvetica;html=1;whiteSpace=wrap;fillColor=#d5e8d4;strokeColor=#82b366;strokeWidth=1;glass=0;rounded=0;shadow=0;" parent="1" vertex="1">
          <mxGeometry x="1150" y="180" width="420" height="340" as="geometry" />
        </mxCell>
        <mxCell id="MrOClFFpd0POXdo-1IgY-5" value="&lt;p style=&quot;margin:0px;margin-top:4px;text-align:center;&quot;&gt;&lt;i&gt;&amp;lt;&amp;lt;Enumeration&amp;gt;&amp;gt;&lt;/i&gt;&lt;/p&gt;&lt;p style=&quot;margin:0px;margin-top:4px;text-align:center;&quot;&gt;&lt;b&gt;PresenceAnomalie&lt;/b&gt;&lt;br&gt;&lt;/p&gt;&lt;hr size=&quot;1&quot;&gt;&lt;p style=&quot;margin:0px;margin-left:4px;&quot;&gt;Faible&lt;/p&gt;&lt;p style=&quot;margin:0px;margin-left:4px;&quot;&gt;Forte&lt;/p&gt;&lt;p style=&quot;margin:0px;margin-left:4px;&quot;&gt;Nulle&lt;/p&gt;&lt;p style=&quot;margin:0px;margin-left:4px;&quot;&gt;&lt;br&gt;&lt;/p&gt;&lt;p style=&quot;margin:0px;margin-left:4px;&quot;&gt;&lt;br&gt;&lt;/p&gt;" style="verticalAlign=top;align=left;overflow=fill;fontSize=12;fontFamily=Helvetica;html=1;whiteSpace=wrap;fillColor=#e1d5e7;strokeColor=#9673a6;" parent="1" vertex="1">
          <mxGeometry x="1290" y="-20" width="140" height="100" as="geometry" />
        </mxCell>
        <mxCell id="9qE0nhktHIJIXh96-6WT-76" style="edgeStyle=orthogonalEdgeStyle;rounded=0;orthogonalLoop=1;jettySize=auto;html=1;" parent="1" source="MrOClFFpd0POXdo-1IgY-15" edge="1">
          <mxGeometry relative="1" as="geometry">
            <Array as="points">
              <mxPoint x="1570" y="344" />
            </Array>
            <mxPoint x="1570" y="344" as="targetPoint" />
          </mxGeometry>
        </mxCell>
        <mxCell id="9qE0nhktHIJIXh96-6WT-84" value="- lesComptages" style="edgeLabel;html=1;align=center;verticalAlign=middle;resizable=0;points=[];" parent="9qE0nhktHIJIXh96-6WT-76" vertex="1" connectable="0">
          <mxGeometry x="0.2587" y="-3" relative="1" as="geometry">
            <mxPoint x="16" y="-6" as="offset" />
          </mxGeometry>
        </mxCell>
        <mxCell id="kVGpFs-e-EHgGDJTWpAH-16" style="edgeStyle=orthogonalEdgeStyle;rounded=0;orthogonalLoop=1;jettySize=auto;html=1;exitX=0.75;exitY=0;exitDx=0;exitDy=0;entryX=0.5;entryY=1;entryDx=0;entryDy=0;" parent="1" source="MrOClFFpd0POXdo-1IgY-15" target="MrOClFFpd0POXdo-1IgY-23" edge="1">
          <mxGeometry relative="1" as="geometry" />
        </mxCell>
        <mxCell id="kVGpFs-e-EHgGDJTWpAH-21" value="- vacances" style="edgeLabel;html=1;align=center;verticalAlign=middle;resizable=0;points=[];" parent="kVGpFs-e-EHgGDJTWpAH-16" vertex="1" connectable="0">
          <mxGeometry x="0.1243" y="2" relative="1" as="geometry">
            <mxPoint as="offset" />
          </mxGeometry>
        </mxCell>
        <mxCell id="kVGpFs-e-EHgGDJTWpAH-17" style="edgeStyle=orthogonalEdgeStyle;rounded=0;orthogonalLoop=1;jettySize=auto;html=1;exitX=0.25;exitY=0;exitDx=0;exitDy=0;" parent="1" source="MrOClFFpd0POXdo-1IgY-15" target="MrOClFFpd0POXdo-1IgY-16" edge="1">
          <mxGeometry relative="1" as="geometry" />
        </mxCell>
        <mxCell id="kVGpFs-e-EHgGDJTWpAH-20" value="- jour" style="edgeLabel;html=1;align=center;verticalAlign=middle;resizable=0;points=[];" parent="kVGpFs-e-EHgGDJTWpAH-17" vertex="1" connectable="0">
          <mxGeometry x="0.1117" y="2" relative="1" as="geometry">
            <mxPoint as="offset" />
          </mxGeometry>
        </mxCell>
        <mxCell id="MrOClFFpd0POXdo-1IgY-15" value="&lt;p style=&quot;margin:0px;margin-top:4px;text-align:center;&quot;&gt;&lt;b&gt;DateInfo&lt;/b&gt;&lt;/p&gt;&lt;hr size=&quot;1&quot;&gt;&lt;div&gt;&amp;nbsp;- laDate : Date&lt;/div&gt;&lt;div&gt;&amp;nbsp;- tempMoy : float&lt;/div&gt;&lt;hr size=&quot;1&quot;&gt;&lt;p style=&quot;margin:0px;margin-left:4px;&quot;&gt;+ DateInfo(laDate : Date, tempMoy : float, jour : Jour, vacances : Vacances)&lt;/p&gt;&lt;p style=&quot;margin:0px;margin-left:4px;&quot;&gt;&lt;br&gt;&lt;/p&gt;&lt;p style=&quot;margin:0px;margin-left:4px;&quot;&gt;+ getLaDate() : Date&lt;/p&gt;&lt;p style=&quot;margin:0px;margin-left:4px;&quot;&gt;+ setLaDate(laDate : Date) : void&lt;/p&gt;&lt;p style=&quot;margin:0px;margin-left:4px;&quot;&gt;+ getTempMoy() : float&lt;/p&gt;&lt;p style=&quot;margin:0px;margin-left:4px;&quot;&gt;+ setTempMoy(tempMoy : float) : void&lt;/p&gt;&lt;p style=&quot;margin:0px;margin-left:4px;&quot;&gt;+ getJour() : Jour&lt;/p&gt;&lt;p style=&quot;margin:0px;margin-left:4px;&quot;&gt;+ setJour(jour : Jour) : void&lt;/p&gt;&lt;p style=&quot;margin:0px;margin-left:4px;&quot;&gt;+ getVacances() : Vacances&lt;/p&gt;&lt;p style=&quot;margin:0px;margin-left:4px;&quot;&gt;+ setVacances(vacances : Vacances) : void&lt;/p&gt;&lt;p style=&quot;margin:0px;margin-left:4px;&quot;&gt;&lt;br&gt;&lt;/p&gt;&lt;div&gt;&amp;nbsp;+ addComptage(leComptage : Comptage) : void&lt;/div&gt;&amp;nbsp;+ removeComptage(leComptage : Comptage) : void&lt;p style=&quot;margin:0px;margin-left:4px;&quot;&gt;&lt;/p&gt;&lt;p style=&quot;margin:0px;margin-left:4px;&quot;&gt;+ toString() : String&lt;/p&gt;&lt;p style=&quot;margin:0px;margin-left:4px;&quot;&gt;+ isInVacances() : boolean&lt;/p&gt;&lt;p style=&quot;margin:0px;margin-left:4px;&quot;&gt;+ isInWeekend() : boolean&lt;br&gt;&lt;/p&gt;&lt;p style=&quot;margin:0px;margin-left:4px;&quot;&gt;+ totalPassages() : int&lt;/p&gt;&lt;div&gt;&amp;nbsp;+ averagePassages() : float&lt;br&gt;&lt;/div&gt;&lt;div&gt;&amp;nbsp;+ totalPassagesPerHour() : int[]&lt;/div&gt;&lt;div&gt;&amp;nbsp;+ averagePassagesPerHour() : float[]&lt;br&gt;&lt;/div&gt;&lt;p style=&quot;margin:0px;margin-left:4px;&quot;&gt;&lt;/p&gt;&lt;p style=&quot;margin:0px;margin-left:4px;&quot;&gt;&lt;/p&gt;" style="verticalAlign=top;align=left;overflow=fill;fontSize=12;fontFamily=Helvetica;html=1;whiteSpace=wrap;fillColor=#d5e8d4;strokeColor=#82b366;" parent="1" vertex="1">
          <mxGeometry x="1700" y="150" width="440" height="369" as="geometry" />
        </mxCell>
        <mxCell id="MrOClFFpd0POXdo-1IgY-16" value="&lt;p style=&quot;margin:0px;margin-top:4px;text-align:center;&quot;&gt;&lt;i&gt;&amp;lt;&amp;lt;Enumeration&amp;gt;&amp;gt;&lt;/i&gt;&lt;/p&gt;&lt;p style=&quot;margin:0px;margin-top:4px;text-align:center;&quot;&gt;&lt;b&gt;Jour&lt;/b&gt;&lt;br&gt;&lt;/p&gt;&lt;hr size=&quot;1&quot;&gt;&lt;div&gt;&amp;nbsp;Lundi&lt;br&gt;&lt;/div&gt;&lt;div&gt;&amp;nbsp;Mardi&lt;/div&gt;&lt;div&gt;&amp;nbsp;Mercredi&lt;/div&gt;&lt;div&gt;&amp;nbsp;Jeudi&lt;/div&gt;&lt;div&gt;&amp;nbsp;Vendredi&lt;/div&gt;&lt;div&gt;&amp;nbsp;Samedi&lt;/div&gt;&lt;div&gt;&amp;nbsp;Dimanche&lt;br&gt;&lt;/div&gt;&lt;p style=&quot;margin:0px;margin-left:4px;&quot;&gt;&lt;br&gt;&lt;/p&gt;&lt;p style=&quot;margin:0px;margin-left:4px;&quot;&gt;&lt;br&gt;&lt;/p&gt;" style="verticalAlign=top;align=left;overflow=fill;fontSize=12;fontFamily=Helvetica;html=1;whiteSpace=wrap;fillColor=#e1d5e7;strokeColor=#9673a6;" parent="1" vertex="1">
          <mxGeometry x="1740" y="-80" width="140" height="160" as="geometry" />
        </mxCell>
        <mxCell id="MrOClFFpd0POXdo-1IgY-23" value="&lt;p style=&quot;margin:0px;margin-top:4px;text-align:center;&quot;&gt;&lt;i&gt;&amp;lt;&amp;lt;Enumeration&amp;gt;&amp;gt;&lt;/i&gt;&lt;/p&gt;&lt;p style=&quot;margin:0px;margin-top:4px;text-align:center;&quot;&gt;&lt;b&gt;Vacances&lt;/b&gt;&lt;br&gt;&lt;/p&gt;&lt;hr size=&quot;1&quot;&gt;&lt;div&gt;&amp;nbsp;Noel&lt;/div&gt;&lt;div&gt;&amp;nbsp;Ascension&lt;/div&gt;&lt;div&gt;&amp;nbsp;Hiver&lt;/div&gt;&lt;div&gt;&amp;nbsp;Ete&lt;/div&gt;&lt;div&gt;&amp;nbsp;Toussaint&lt;/div&gt;&lt;div&gt;&amp;nbsp;Printemps&lt;/div&gt;&lt;div&gt;&amp;nbsp;Nulle&lt;br&gt;&lt;/div&gt;&lt;p style=&quot;margin:0px;margin-left:4px;&quot;&gt;&lt;br&gt;&lt;/p&gt;&lt;p style=&quot;margin:0px;margin-left:4px;&quot;&gt;&lt;br&gt;&lt;/p&gt;" style="verticalAlign=top;align=left;overflow=fill;fontSize=12;fontFamily=Helvetica;html=1;whiteSpace=wrap;fillColor=#e1d5e7;strokeColor=#9673a6;" parent="1" vertex="1">
          <mxGeometry x="1960" y="-80" width="140" height="160" as="geometry" />
        </mxCell>
        <mxCell id="MrOClFFpd0POXdo-1IgY-29" value="&lt;p style=&quot;margin:0px;margin-top:4px;text-align:center;&quot;&gt;&lt;b&gt;Database&lt;/b&gt;&lt;/p&gt;&lt;hr size=&quot;1&quot;&gt;&lt;div&gt;&amp;nbsp;- URL : String&lt;/div&gt;&lt;div&gt;&amp;nbsp;- readConnection : Connection&lt;/div&gt;&lt;div&gt;&amp;nbsp;- writeConnection : Connection&lt;/div&gt;&lt;hr size=&quot;1&quot;&gt;&lt;p style=&quot;margin:0px;margin-left:4px;&quot;&gt;+ Database(url : String)&lt;/p&gt;&lt;p style=&quot;margin:0px;margin-left:4px;&quot;&gt;&lt;br&gt;&lt;/p&gt;&lt;p style=&quot;margin:0px;margin-left:4px;&quot;&gt;+ openReadConnection(user : String, password : String) : void&lt;/p&gt;&lt;p style=&quot;margin:0px;margin-left:4px;&quot;&gt;+ openWriteConnection(user : String, password : String) : void&lt;/p&gt;&lt;p style=&quot;margin:0px;margin-left:4px;&quot;&gt;+ closeReadConnection() : void&lt;/p&gt;&lt;p style=&quot;margin:0px;margin-left:4px;&quot;&gt;+ closeWriteConnection() : void&lt;/p&gt;&lt;p style=&quot;margin:0px;margin-left:4px;&quot;&gt;+ preparedReadStatement(query : String) : PreparedStatement&lt;/p&gt;&lt;p style=&quot;margin:0px;margin-left:4px;&quot;&gt;+ preparedWriteStatement(query : String) : PreparedStatement&lt;br&gt;&lt;/p&gt;" style="verticalAlign=top;align=left;overflow=fill;fontSize=12;fontFamily=Helvetica;html=1;whiteSpace=wrap;fillColor=#dae8fc;strokeColor=#6c8ebf;" parent="1" vertex="1">
          <mxGeometry x="1170" y="1240" width="380" height="210" as="geometry" />
        </mxCell>
        <mxCell id="iDF5Uk8PFmxMC6S4ZIeN-8" style="edgeStyle=orthogonalEdgeStyle;rounded=0;orthogonalLoop=1;jettySize=auto;html=1;entryX=0.5;entryY=1;entryDx=0;entryDy=0;" parent="1" source="iDF5Uk8PFmxMC6S4ZIeN-2" target="p_eBftwZYgydQJ64UmXx-5" edge="1">
          <mxGeometry relative="1" as="geometry" />
        </mxCell>
        <mxCell id="9qE0nhktHIJIXh96-6WT-56" value="- lesQuartiers" style="edgeLabel;html=1;align=center;verticalAlign=middle;resizable=0;points=[];" parent="iDF5Uk8PFmxMC6S4ZIeN-8" vertex="1" connectable="0">
          <mxGeometry x="0.0801" relative="1" as="geometry">
            <mxPoint y="-1" as="offset" />
          </mxGeometry>
        </mxCell>
        <mxCell id="iDF5Uk8PFmxMC6S4ZIeN-18" style="edgeStyle=orthogonalEdgeStyle;rounded=0;orthogonalLoop=1;jettySize=auto;html=1;entryX=0;entryY=0.75;entryDx=0;entryDy=0;" parent="1" source="iDF5Uk8PFmxMC6S4ZIeN-2" target="MrOClFFpd0POXdo-1IgY-29" edge="1">
          <mxGeometry relative="1" as="geometry">
            <Array as="points">
              <mxPoint x="258" y="1398" />
            </Array>
          </mxGeometry>
        </mxCell>
        <mxCell id="iDF5Uk8PFmxMC6S4ZIeN-19" value="- database" style="edgeLabel;html=1;align=center;verticalAlign=middle;resizable=0;points=[];" parent="iDF5Uk8PFmxMC6S4ZIeN-18" vertex="1" connectable="0">
          <mxGeometry x="0.1659" relative="1" as="geometry">
            <mxPoint x="-357" y="-277" as="offset" />
          </mxGeometry>
        </mxCell>
        <mxCell id="9qE0nhktHIJIXh96-6WT-63" style="edgeStyle=orthogonalEdgeStyle;rounded=0;orthogonalLoop=1;jettySize=auto;html=1;entryX=0;entryY=0.5;entryDx=0;entryDy=0;startArrow=classic;startFill=1;endArrow=none;endFill=0;" parent="1" source="iDF5Uk8PFmxMC6S4ZIeN-2" target="iDF5Uk8PFmxMC6S4ZIeN-3" edge="1">
          <mxGeometry relative="1" as="geometry" />
        </mxCell>
        <mxCell id="9qE0nhktHIJIXh96-6WT-66" value="- quartierDao" style="edgeLabel;html=1;align=center;verticalAlign=middle;resizable=0;points=[];" parent="9qE0nhktHIJIXh96-6WT-63" vertex="1" connectable="0">
          <mxGeometry x="-0.1506" y="-1" relative="1" as="geometry">
            <mxPoint y="-16" as="offset" />
          </mxGeometry>
        </mxCell>
        <mxCell id="iDF5Uk8PFmxMC6S4ZIeN-9" style="edgeStyle=orthogonalEdgeStyle;rounded=0;orthogonalLoop=1;jettySize=auto;html=1;entryX=0.5;entryY=1;entryDx=0;entryDy=0;" parent="1" source="iDF5Uk8PFmxMC6S4ZIeN-3" target="MrOClFFpd0POXdo-1IgY-1" edge="1">
          <mxGeometry relative="1" as="geometry" />
        </mxCell>
        <mxCell id="9qE0nhktHIJIXh96-6WT-57" value="- lesCompteurs" style="edgeLabel;html=1;align=center;verticalAlign=middle;resizable=0;points=[];" parent="iDF5Uk8PFmxMC6S4ZIeN-9" vertex="1" connectable="0">
          <mxGeometry x="0.1199" y="-2" relative="1" as="geometry">
            <mxPoint x="-2" as="offset" />
          </mxGeometry>
        </mxCell>
        <mxCell id="iDF5Uk8PFmxMC6S4ZIeN-17" style="edgeStyle=orthogonalEdgeStyle;rounded=0;orthogonalLoop=1;jettySize=auto;html=1;entryX=0;entryY=0.25;entryDx=0;entryDy=0;" parent="1" source="iDF5Uk8PFmxMC6S4ZIeN-3" target="MrOClFFpd0POXdo-1IgY-29" edge="1">
          <mxGeometry relative="1" as="geometry">
            <Array as="points">
              <mxPoint x="800" y="1293" />
            </Array>
          </mxGeometry>
        </mxCell>
        <mxCell id="iDF5Uk8PFmxMC6S4ZIeN-20" value="- database" style="edgeLabel;html=1;align=center;verticalAlign=middle;resizable=0;points=[];" parent="iDF5Uk8PFmxMC6S4ZIeN-17" vertex="1" connectable="0">
          <mxGeometry x="0.3919" y="-1" relative="1" as="geometry">
            <mxPoint x="-175" y="-166" as="offset" />
          </mxGeometry>
        </mxCell>
        <mxCell id="9qE0nhktHIJIXh96-6WT-64" style="edgeStyle=orthogonalEdgeStyle;rounded=0;orthogonalLoop=1;jettySize=auto;html=1;entryX=0;entryY=0.5;entryDx=0;entryDy=0;endArrow=none;endFill=0;startArrow=classic;startFill=1;" parent="1" source="iDF5Uk8PFmxMC6S4ZIeN-3" target="iDF5Uk8PFmxMC6S4ZIeN-4" edge="1">
          <mxGeometry relative="1" as="geometry" />
        </mxCell>
        <mxCell id="9qE0nhktHIJIXh96-6WT-68" value="&lt;div&gt;- compteurDao&lt;/div&gt;" style="edgeLabel;html=1;align=center;verticalAlign=middle;resizable=0;points=[];" parent="9qE0nhktHIJIXh96-6WT-64" vertex="1" connectable="0">
          <mxGeometry x="-0.3265" y="1" relative="1" as="geometry">
            <mxPoint x="43" y="-14" as="offset" />
          </mxGeometry>
        </mxCell>
        <mxCell id="kVGpFs-e-EHgGDJTWpAH-12" style="edgeStyle=orthogonalEdgeStyle;rounded=0;orthogonalLoop=1;jettySize=auto;html=1;exitX=0.75;exitY=0;exitDx=0;exitDy=0;dashed=1;endArrow=none;endFill=0;" parent="1" source="iDF5Uk8PFmxMC6S4ZIeN-3" edge="1">
          <mxGeometry relative="1" as="geometry">
            <mxPoint x="1450" y="790" as="targetPoint" />
            <Array as="points">
              <mxPoint x="860" y="790" />
            </Array>
          </mxGeometry>
        </mxCell>
        <mxCell id="R8S3w-2baMEadNncPOtm-15" style="rounded=0;orthogonalLoop=1;jettySize=auto;html=1;exitX=0.25;exitY=0;exitDx=0;exitDy=0;entryX=0.75;entryY=1;entryDx=0;entryDy=0;dashed=1;" parent="1" source="iDF5Uk8PFmxMC6S4ZIeN-3" target="p_eBftwZYgydQJ64UmXx-5" edge="1">
          <mxGeometry relative="1" as="geometry">
            <mxPoint x="530" y="640" as="targetPoint" />
          </mxGeometry>
        </mxCell>
        <mxCell id="iDF5Uk8PFmxMC6S4ZIeN-3" value="&lt;p style=&quot;margin:0px;margin-top:4px;text-align:center;&quot;&gt;&lt;b&gt;CompteurDao&lt;/b&gt;&lt;/p&gt;&lt;hr size=&quot;1&quot;&gt;&lt;hr size=&quot;1&quot;&gt;&lt;p style=&quot;margin:0px;margin-left:4px;&quot;&gt;+ CompteurDao(db : Database, quartierDao : QuartierDao)&lt;/p&gt;&lt;p style=&quot;margin:0px;margin-left:4px;&quot;&gt;&lt;br&gt;&lt;/p&gt;&lt;p style=&quot;margin:0px;margin-left:4px;&quot;&gt;+ get(leCompteur : int) : Compteur&lt;/p&gt;&lt;p style=&quot;margin:0px;margin-left:4px;&quot;&gt;+ getAll() : ArrayList&amp;lt;Compteur&amp;gt;&lt;/p&gt;&lt;p style=&quot;margin:0px;margin-left:4px;&quot;&gt;&lt;br&gt;&lt;/p&gt;&lt;p style=&quot;margin:0px;margin-left:4px;&quot;&gt;+ readAll() : void&lt;br&gt;&lt;/p&gt;&lt;p style=&quot;margin:0px;margin-left:4px;&quot;&gt;+ add(compteur : Compteur) : void&lt;/p&gt;&lt;p style=&quot;margin:0px;margin-left:4px;&quot;&gt;+ remove(compteur : Compteur) : void&lt;/p&gt;&lt;p style=&quot;margin:0px;margin-left:4px;&quot;&gt;+ update(compteur : Compteur) : void&lt;br&gt;&lt;/p&gt;" style="verticalAlign=top;align=left;overflow=fill;fontSize=12;fontFamily=Helvetica;html=1;whiteSpace=wrap;fillColor=#fff2cc;strokeColor=#d6b656;" parent="1" vertex="1">
          <mxGeometry x="680" y="825" width="240" height="190" as="geometry" />
        </mxCell>
        <mxCell id="iDF5Uk8PFmxMC6S4ZIeN-14" style="edgeStyle=orthogonalEdgeStyle;rounded=0;orthogonalLoop=1;jettySize=auto;html=1;entryX=0.5;entryY=0;entryDx=0;entryDy=0;" parent="1" source="iDF5Uk8PFmxMC6S4ZIeN-4" target="MrOClFFpd0POXdo-1IgY-29" edge="1">
          <mxGeometry relative="1" as="geometry">
            <mxPoint x="1410" y="1110" as="targetPoint" />
            <Array as="points" />
          </mxGeometry>
        </mxCell>
        <mxCell id="iDF5Uk8PFmxMC6S4ZIeN-21" value="- database" style="edgeLabel;html=1;align=center;verticalAlign=middle;resizable=0;points=[];" parent="iDF5Uk8PFmxMC6S4ZIeN-14" vertex="1" connectable="0">
          <mxGeometry x="-0.1538" y="3" relative="1" as="geometry">
            <mxPoint x="-7" y="14" as="offset" />
          </mxGeometry>
        </mxCell>
        <mxCell id="kVGpFs-e-EHgGDJTWpAH-9" style="edgeStyle=orthogonalEdgeStyle;rounded=0;orthogonalLoop=1;jettySize=auto;html=1;entryX=0.5;entryY=1;entryDx=0;entryDy=0;" parent="1" source="iDF5Uk8PFmxMC6S4ZIeN-4" target="MrOClFFpd0POXdo-1IgY-4" edge="1">
          <mxGeometry relative="1" as="geometry" />
        </mxCell>
        <mxCell id="kVGpFs-e-EHgGDJTWpAH-10" value="- lesComptages" style="edgeLabel;html=1;align=center;verticalAlign=middle;resizable=0;points=[];" parent="kVGpFs-e-EHgGDJTWpAH-9" vertex="1" connectable="0">
          <mxGeometry x="0.1195" y="1" relative="1" as="geometry">
            <mxPoint as="offset" />
          </mxGeometry>
        </mxCell>
        <mxCell id="kVGpFs-e-EHgGDJTWpAH-11" style="edgeStyle=orthogonalEdgeStyle;rounded=0;orthogonalLoop=1;jettySize=auto;html=1;exitX=0.825;exitY=0.016;exitDx=0;exitDy=0;dashed=1;endArrow=none;endFill=0;exitPerimeter=0;" parent="1" source="iDF5Uk8PFmxMC6S4ZIeN-4" edge="1">
          <mxGeometry relative="1" as="geometry">
            <mxPoint x="1999.9999999999995" y="790" as="targetPoint" />
            <Array as="points">
              <mxPoint x="1451" y="825" />
              <mxPoint x="1450" y="825" />
              <mxPoint x="1450" y="790" />
            </Array>
          </mxGeometry>
        </mxCell>
        <mxCell id="R8S3w-2baMEadNncPOtm-17" style="rounded=0;orthogonalLoop=1;jettySize=auto;html=1;exitX=0.25;exitY=0;exitDx=0;exitDy=0;entryX=0.75;entryY=1;entryDx=0;entryDy=0;dashed=1;" parent="1" source="iDF5Uk8PFmxMC6S4ZIeN-4" target="MrOClFFpd0POXdo-1IgY-1" edge="1">
          <mxGeometry relative="1" as="geometry" />
        </mxCell>
        <mxCell id="R8S3w-2baMEadNncPOtm-18" style="rounded=0;orthogonalLoop=1;jettySize=auto;html=1;exitX=0.75;exitY=0;exitDx=0;exitDy=0;entryX=0.25;entryY=1;entryDx=0;entryDy=0;dashed=1;" parent="1" source="iDF5Uk8PFmxMC6S4ZIeN-4" target="MrOClFFpd0POXdo-1IgY-15" edge="1">
          <mxGeometry relative="1" as="geometry">
            <mxPoint x="1680" y="630" as="targetPoint" />
          </mxGeometry>
        </mxCell>
        <mxCell id="iDF5Uk8PFmxMC6S4ZIeN-4" value="&lt;p style=&quot;margin:0px;margin-top:4px;text-align:center;&quot;&gt;&lt;b&gt;ComptageDao&lt;/b&gt;&lt;/p&gt;&lt;hr size=&quot;1&quot;&gt;&lt;hr size=&quot;1&quot;&gt;&lt;p style=&quot;margin:0px;margin-left:4px;&quot;&gt;+ ComptageDao(db : Database, compteurDao : CompteurDao, dateInfoDao : DateInfoDao)&lt;/p&gt;&lt;p style=&quot;margin:0px;margin-left:4px;&quot;&gt;&lt;br&gt;&lt;/p&gt;&lt;p style=&quot;margin:0px;margin-left:4px;&quot;&gt;+ get(leCompteur : int, laDate : Date) : Comptage&lt;/p&gt;&lt;p style=&quot;margin:0px;margin-left:4px;&quot;&gt;+ getAll() : ArrayList&amp;lt;Comptage&amp;gt;&lt;/p&gt;&lt;p style=&quot;margin:0px;margin-left:4px;&quot;&gt;&lt;br&gt;&lt;/p&gt;&lt;p style=&quot;margin:0px;margin-left:4px;&quot;&gt;+ readAll() : void&lt;/p&gt;&lt;p style=&quot;margin:0px;margin-left:4px;&quot;&gt;+ add(comptage : Comptage) : void&lt;/p&gt;&lt;p style=&quot;margin:0px;margin-left:4px;&quot;&gt;+ remove(comptage : Comptage) : void&lt;/p&gt;&lt;p style=&quot;margin:0px;margin-left:4px;&quot;&gt;+ update(comptage : Comptage) : void&lt;br&gt;&lt;/p&gt;" style="verticalAlign=top;align=left;overflow=fill;fontSize=12;fontFamily=Helvetica;html=1;whiteSpace=wrap;fillColor=#fff2cc;strokeColor=#d6b656;" parent="1" vertex="1">
          <mxGeometry x="1220" y="825" width="280" height="190" as="geometry" />
        </mxCell>
        <mxCell id="iDF5Uk8PFmxMC6S4ZIeN-11" style="edgeStyle=orthogonalEdgeStyle;rounded=0;orthogonalLoop=1;jettySize=auto;html=1;entryX=0.5;entryY=1;entryDx=0;entryDy=0;" parent="1" source="iDF5Uk8PFmxMC6S4ZIeN-5" target="MrOClFFpd0POXdo-1IgY-15" edge="1">
          <mxGeometry relative="1" as="geometry" />
        </mxCell>
        <mxCell id="9qE0nhktHIJIXh96-6WT-59" value="&lt;div&gt;- lesDates&lt;/div&gt;" style="edgeLabel;html=1;align=center;verticalAlign=middle;resizable=0;points=[];" parent="iDF5Uk8PFmxMC6S4ZIeN-11" vertex="1" connectable="0">
          <mxGeometry x="0.1314" relative="1" as="geometry">
            <mxPoint y="3" as="offset" />
          </mxGeometry>
        </mxCell>
        <mxCell id="iDF5Uk8PFmxMC6S4ZIeN-15" style="edgeStyle=orthogonalEdgeStyle;rounded=0;orthogonalLoop=1;jettySize=auto;html=1;entryX=1;entryY=0.5;entryDx=0;entryDy=0;" parent="1" source="iDF5Uk8PFmxMC6S4ZIeN-5" target="MrOClFFpd0POXdo-1IgY-29" edge="1">
          <mxGeometry relative="1" as="geometry">
            <Array as="points">
              <mxPoint x="1920" y="1345" />
            </Array>
            <mxPoint x="1540" y="1230" as="targetPoint" />
          </mxGeometry>
        </mxCell>
        <mxCell id="iDF5Uk8PFmxMC6S4ZIeN-22" value="- database" style="edgeLabel;html=1;align=center;verticalAlign=middle;resizable=0;points=[];" parent="iDF5Uk8PFmxMC6S4ZIeN-15" vertex="1" connectable="0">
          <mxGeometry x="0.3994" y="3" relative="1" as="geometry">
            <mxPoint x="153" y="-223" as="offset" />
          </mxGeometry>
        </mxCell>
        <mxCell id="9qE0nhktHIJIXh96-6WT-65" style="edgeStyle=orthogonalEdgeStyle;rounded=0;orthogonalLoop=1;jettySize=auto;html=1;entryX=1;entryY=0.5;entryDx=0;entryDy=0;startArrow=classic;startFill=1;endArrow=none;endFill=0;" parent="1" source="iDF5Uk8PFmxMC6S4ZIeN-5" target="iDF5Uk8PFmxMC6S4ZIeN-4" edge="1">
          <mxGeometry relative="1" as="geometry" />
        </mxCell>
        <mxCell id="9qE0nhktHIJIXh96-6WT-69" value="- dateInfoDao" style="edgeLabel;html=1;align=center;verticalAlign=middle;resizable=0;points=[];" parent="9qE0nhktHIJIXh96-6WT-65" vertex="1" connectable="0">
          <mxGeometry x="-0.0587" y="1" relative="1" as="geometry">
            <mxPoint y="-16" as="offset" />
          </mxGeometry>
        </mxCell>
        <mxCell id="kVGpFs-e-EHgGDJTWpAH-7" style="edgeStyle=orthogonalEdgeStyle;rounded=0;orthogonalLoop=1;jettySize=auto;html=1;exitX=0.75;exitY=0;exitDx=0;exitDy=0;entryX=0.5;entryY=0;entryDx=0;entryDy=0;dashed=1;endArrow=block;endFill=0;strokeWidth=1;endSize=11;" parent="1" source="iDF5Uk8PFmxMC6S4ZIeN-5" target="iDF5Uk8PFmxMC6S4ZIeN-23" edge="1">
          <mxGeometry relative="1" as="geometry">
            <Array as="points">
              <mxPoint x="1980" y="790" />
              <mxPoint x="2270" y="790" />
            </Array>
          </mxGeometry>
        </mxCell>
        <mxCell id="iDF5Uk8PFmxMC6S4ZIeN-5" value="&lt;p style=&quot;margin:0px;margin-top:4px;text-align:center;&quot;&gt;&lt;b&gt;DateInfoDao&lt;/b&gt;&lt;/p&gt;&lt;hr size=&quot;1&quot;&gt;&lt;hr size=&quot;1&quot;&gt;&lt;p style=&quot;margin:0px;margin-left:4px;&quot;&gt;+ DateInfoDao(db : Database)&lt;/p&gt;&lt;p style=&quot;margin:0px;margin-left:4px;&quot;&gt;&lt;br&gt;&lt;/p&gt;&lt;p style=&quot;margin:0px;margin-left:4px;&quot;&gt;+ get(laDate : Date) : DateInfo&lt;/p&gt;&lt;p style=&quot;margin:0px;margin-left:4px;&quot;&gt;+ getAll() : ArrayList&amp;lt;DateInfo&amp;gt;&lt;br&gt;&lt;/p&gt;&lt;p style=&quot;margin:0px;margin-left:4px;&quot;&gt;&lt;br&gt;&lt;/p&gt;&lt;p style=&quot;margin:0px;margin-left:4px;&quot;&gt;+ readAll() : void&lt;/p&gt;&lt;p style=&quot;margin:0px;margin-left:4px;&quot;&gt;+ add(date : DateInfo) : void&lt;/p&gt;&lt;p style=&quot;margin:0px;margin-left:4px;&quot;&gt;+ remove(date : DateInfo) : void&lt;/p&gt;&lt;p style=&quot;margin:0px;margin-left:4px;&quot;&gt;+ update(date : DateInfo) : void&lt;br&gt;&lt;/p&gt;" style="verticalAlign=top;align=left;overflow=fill;fontSize=12;fontFamily=Helvetica;html=1;whiteSpace=wrap;fillColor=#fff2cc;strokeColor=#d6b656;" parent="1" vertex="1">
          <mxGeometry x="1800" y="830" width="240" height="180" as="geometry" />
        </mxCell>
        <mxCell id="iDF5Uk8PFmxMC6S4ZIeN-23" value="&lt;p style=&quot;margin:0px;margin-top:4px;text-align:center;&quot;&gt;&lt;i&gt;&amp;lt;&amp;lt;Interface&amp;gt;&amp;gt;&lt;/i&gt;&lt;/p&gt;&lt;p style=&quot;margin:0px;margin-top:4px;text-align:center;&quot;&gt;&lt;b&gt;IDao &amp;lt;T&amp;gt;&lt;/b&gt;&lt;br&gt;&lt;/p&gt;&lt;hr size=&quot;1&quot;&gt;&lt;hr size=&quot;1&quot;&gt;&lt;p style=&quot;margin:0px;margin-left:4px;&quot;&gt;+ getAll() : ArrayList&amp;lt;T&amp;gt;&lt;br&gt;&lt;/p&gt;&lt;p style=&quot;margin:0px;margin-left:4px;&quot;&gt;+ readAll() : void&lt;br&gt;&lt;/p&gt;&lt;p style=&quot;margin:0px;margin-left:4px;&quot;&gt;+ add(t : T) : void&lt;/p&gt;&lt;p style=&quot;margin:0px;margin-left:4px;&quot;&gt;+ remove(t : T) : void&lt;/p&gt;&lt;p style=&quot;margin:0px;margin-left:4px;&quot;&gt;+ update(t : T) : void&lt;br&gt;&lt;/p&gt;" style="verticalAlign=top;align=left;overflow=fill;fontSize=12;fontFamily=Helvetica;html=1;whiteSpace=wrap;fillColor=#ffe6cc;strokeColor=#d79b00;" parent="1" vertex="1">
          <mxGeometry x="2190" y="850" width="160" height="138" as="geometry" />
        </mxCell>
        <mxCell id="9qE0nhktHIJIXh96-6WT-29" value="1" style="text;html=1;strokeColor=none;fillColor=none;align=center;verticalAlign=middle;whiteSpace=wrap;rounded=0;" parent="1" vertex="1">
          <mxGeometry x="1340" y="80" width="60" height="30" as="geometry" />
        </mxCell>
        <mxCell id="9qE0nhktHIJIXh96-6WT-30" value="1" style="text;html=1;strokeColor=none;fillColor=none;align=center;verticalAlign=middle;whiteSpace=wrap;rounded=0;" parent="1" vertex="1">
          <mxGeometry x="1790" y="80" width="60" height="30" as="geometry" />
        </mxCell>
        <mxCell id="9qE0nhktHIJIXh96-6WT-31" value="1" style="text;html=1;strokeColor=none;fillColor=none;align=center;verticalAlign=middle;whiteSpace=wrap;rounded=0;" parent="1" vertex="1">
          <mxGeometry x="2010" y="80" width="60" height="30" as="geometry" />
        </mxCell>
        <mxCell id="9qE0nhktHIJIXh96-6WT-33" value="1" style="text;html=1;strokeColor=none;fillColor=none;align=center;verticalAlign=middle;whiteSpace=wrap;rounded=0;" parent="1" vertex="1">
          <mxGeometry x="1120" y="1260" width="60" height="30" as="geometry" />
        </mxCell>
        <mxCell id="9qE0nhktHIJIXh96-6WT-34" value="1" style="text;html=1;strokeColor=none;fillColor=none;align=center;verticalAlign=middle;whiteSpace=wrap;rounded=0;" parent="1" vertex="1">
          <mxGeometry x="1120" y="1400" width="60" height="30" as="geometry" />
        </mxCell>
        <mxCell id="9qE0nhktHIJIXh96-6WT-35" value="1" style="text;html=1;strokeColor=none;fillColor=none;align=center;verticalAlign=middle;whiteSpace=wrap;rounded=0;" parent="1" vertex="1">
          <mxGeometry x="1350" y="1210" width="60" height="30" as="geometry" />
        </mxCell>
        <mxCell id="9qE0nhktHIJIXh96-6WT-46" value="1" style="text;html=1;strokeColor=none;fillColor=none;align=center;verticalAlign=middle;whiteSpace=wrap;rounded=0;" parent="1" vertex="1">
          <mxGeometry x="1530" y="1360" width="60" height="30" as="geometry" />
        </mxCell>
        <mxCell id="9qE0nhktHIJIXh96-6WT-51" value="*" style="text;html=1;strokeColor=none;fillColor=none;align=center;verticalAlign=middle;whiteSpace=wrap;rounded=0;" parent="1" vertex="1">
          <mxGeometry x="240" y="520" width="60" height="30" as="geometry" />
        </mxCell>
        <mxCell id="9qE0nhktHIJIXh96-6WT-53" value="*" style="text;html=1;strokeColor=none;fillColor=none;align=center;verticalAlign=middle;whiteSpace=wrap;rounded=0;" parent="1" vertex="1">
          <mxGeometry x="780" y="520" width="60" height="30" as="geometry" />
        </mxCell>
        <mxCell id="9qE0nhktHIJIXh96-6WT-54" value="*" style="text;html=1;strokeColor=none;fillColor=none;align=center;verticalAlign=middle;whiteSpace=wrap;rounded=0;" parent="1" vertex="1">
          <mxGeometry x="1340" y="520" width="60" height="30" as="geometry" />
        </mxCell>
        <mxCell id="9qE0nhktHIJIXh96-6WT-55" value="*" style="text;html=1;strokeColor=none;fillColor=none;align=center;verticalAlign=middle;whiteSpace=wrap;rounded=0;" parent="1" vertex="1">
          <mxGeometry x="1900" y="519" width="60" height="30" as="geometry" />
        </mxCell>
        <mxCell id="9qE0nhktHIJIXh96-6WT-82" value="*" style="text;html=1;strokeColor=none;fillColor=none;align=center;verticalAlign=middle;whiteSpace=wrap;rounded=0;" parent="1" vertex="1">
          <mxGeometry x="542" y="260" width="60" height="30" as="geometry" />
        </mxCell>
        <mxCell id="9qE0nhktHIJIXh96-6WT-88" value="*" style="text;html=1;strokeColor=none;fillColor=none;align=center;verticalAlign=middle;whiteSpace=wrap;rounded=0;" parent="1" vertex="1">
          <mxGeometry x="1110" y="285.75" width="60" height="30" as="geometry" />
        </mxCell>
        <mxCell id="9qE0nhktHIJIXh96-6WT-89" value="*" style="text;html=1;strokeColor=none;fillColor=none;align=center;verticalAlign=middle;whiteSpace=wrap;rounded=0;" parent="1" vertex="1">
          <mxGeometry x="1550" y="315.75" width="60" height="30" as="geometry" />
        </mxCell>
        <mxCell id="kVGpFs-e-EHgGDJTWpAH-2" value="1" style="text;html=1;strokeColor=none;fillColor=none;align=center;verticalAlign=middle;whiteSpace=wrap;rounded=0;" parent="1" vertex="1">
          <mxGeometry x="900" y="890" width="60" height="30" as="geometry" />
        </mxCell>
        <mxCell id="kVGpFs-e-EHgGDJTWpAH-3" value="1" style="text;html=1;strokeColor=none;fillColor=none;align=center;verticalAlign=middle;whiteSpace=wrap;rounded=0;" parent="1" vertex="1">
          <mxGeometry x="380" y="890" width="60" height="30" as="geometry" />
        </mxCell>
        <mxCell id="kVGpFs-e-EHgGDJTWpAH-29" value="entities" style="text;html=1;strokeColor=none;fillColor=none;align=center;verticalAlign=middle;whiteSpace=wrap;rounded=0;" parent="1" vertex="1">
          <mxGeometry x="30" y="-140" width="60" height="30" as="geometry" />
        </mxCell>
        <mxCell id="kVGpFs-e-EHgGDJTWpAH-30" value="dao" style="text;html=1;strokeColor=none;fillColor=none;align=center;verticalAlign=middle;whiteSpace=wrap;rounded=0;" parent="1" vertex="1">
          <mxGeometry x="100" y="736" width="60" height="30" as="geometry" />
        </mxCell>
        <mxCell id="kVGpFs-e-EHgGDJTWpAH-31" value="database" style="text;html=1;strokeColor=none;fillColor=none;align=center;verticalAlign=middle;whiteSpace=wrap;rounded=0;" parent="1" vertex="1">
          <mxGeometry x="1130" y="1186" width="60" height="30" as="geometry" />
        </mxCell>
        <mxCell id="R8S3w-2baMEadNncPOtm-3" value="1" style="text;html=1;strokeColor=none;fillColor=none;align=center;verticalAlign=middle;whiteSpace=wrap;rounded=0;" parent="1" vertex="1">
          <mxGeometry x="444" y="375" width="60" height="30" as="geometry" />
        </mxCell>
        <mxCell id="R8S3w-2baMEadNncPOtm-6" value="1" style="text;html=1;strokeColor=none;fillColor=none;align=center;verticalAlign=middle;whiteSpace=wrap;rounded=0;" parent="1" vertex="1">
          <mxGeometry x="999" y="405" width="60" height="30" as="geometry" />
        </mxCell>
        <mxCell id="R8S3w-2baMEadNncPOtm-9" value="1" style="text;html=1;strokeColor=none;fillColor=none;align=center;verticalAlign=middle;whiteSpace=wrap;rounded=0;" parent="1" vertex="1">
          <mxGeometry x="1660" y="400" width="60" height="30" as="geometry" />
        </mxCell>
        <mxCell id="R8S3w-2baMEadNncPOtm-13" value="&amp;lt;&amp;lt;local&amp;gt;&amp;gt;" style="edgeLabel;html=1;align=center;verticalAlign=middle;resizable=0;points=[];" parent="1" vertex="1" connectable="0">
          <mxGeometry x="690" y="536.4988888888889" as="geometry" />
        </mxCell>
        <mxCell id="R8S3w-2baMEadNncPOtm-14" value="1" style="text;html=1;strokeColor=none;fillColor=none;align=center;verticalAlign=middle;whiteSpace=wrap;rounded=0;" parent="1" vertex="1">
          <mxGeometry x="1750" y="890" width="60" height="30" as="geometry" />
        </mxCell>
        <mxCell id="R8S3w-2baMEadNncPOtm-16" value="&amp;lt;&amp;lt;local&amp;gt;&amp;gt;" style="edgeLabel;html=1;align=center;verticalAlign=middle;resizable=0;points=[];" parent="1" vertex="1" connectable="0">
          <mxGeometry x="560" y="679.9988888888889" as="geometry" />
        </mxCell>
        <mxCell id="R8S3w-2baMEadNncPOtm-19" value="&amp;lt;&amp;lt;local&amp;gt;&amp;gt;" style="edgeLabel;html=1;align=center;verticalAlign=middle;resizable=0;points=[];" parent="1" vertex="1" connectable="0">
          <mxGeometry x="1610" y="679.9988888888889" as="geometry" />
        </mxCell>
        <mxCell id="R8S3w-2baMEadNncPOtm-20" value="&amp;lt;&amp;lt;local&amp;gt;&amp;gt;" style="edgeLabel;html=1;align=center;verticalAlign=middle;resizable=0;points=[];" parent="1" vertex="1" connectable="0">
          <mxGeometry x="1110" y="679.9988888888889" as="geometry" />
        </mxCell>
      </root>
    </mxGraphModel>
  </diagram>
</mxfile>
